<svg width="320" height="170" viewBox="0 0 320 170" fill="none" xmlns="http://www.w3.org/2000/svg">
<g clip-path="url(#clip0_14_1)">
<path d="M93.13 70.695C96.1267 70.0183 99.0267 67.795 101.83 64.025C104.633 60.255 106.035 55.5667 106.035 49.96C106.035 44.2567 104.005 40.1 99.945 37.49C95.9817 34.88 89.8433 33.575 81.53 33.575C69.1567 33.575 59.0067 35.9433 51.08 40.68C43.25 45.4167 39.335 50.4917 39.335 55.905C39.335 58.7083 40.3983 60.98 42.525 62.72C44.6517 64.3633 46.7783 65.475 48.905 66.055C48.615 69.825 47.31 73.4017 44.99 76.785C41.22 76.1083 37.74 74.1267 34.55 70.84C31.36 67.4567 29.765 63.1067 29.765 57.79C29.765 48.3167 35.0333 40.4867 45.57 34.3C56.1067 28.0167 69.7367 24.875 86.46 24.875C99.3167 24.875 109.515 26.905 117.055 30.965C124.595 35.025 128.365 41.26 128.365 49.67C128.365 56.2433 126.093 61.705 121.55 66.055C117.007 70.405 111.207 73.6917 104.15 75.915C111.207 76.9783 116.813 79.6367 120.97 83.89C128.703 81.86 135.857 80.845 142.43 80.845L149.535 81.28C149.728 81.9567 149.825 82.6333 149.825 83.31C149.825 86.6933 149.342 89.3517 148.375 91.285C145.765 90.705 142.237 90.415 137.79 90.415C133.44 90.415 129.525 90.9467 126.045 92.01C127.302 95.5867 127.93 99.405 127.93 103.465C127.93 113.325 124.982 121.445 119.085 127.825C113.188 134.205 106.422 137.395 98.785 137.395C93.565 137.395 89.215 135.8 85.735 132.61C82.255 129.517 80.515 125.022 80.515 119.125C80.515 113.132 82.69 107.477 87.04 102.16C91.4867 96.7467 96.9 92.4933 103.28 89.4C100.767 82.9233 96.2717 79.685 89.795 79.685H88.78C88.2 77.1717 88.345 74.32 89.215 71.13C90.665 71.13 91.97 70.985 93.13 70.695ZM65 54.89C65 53.0533 64.7583 51.7 64.275 50.83C63.8883 49.96 62.97 48.7033 61.52 47.06L61.665 46.045C66.7883 43.0483 73.1683 41.55 80.805 41.55C83.8017 41.55 86.025 41.7917 87.475 42.275C87.9583 43.2417 88.2 45.32 88.2 48.51C88.2 51.6033 85.6867 63.2517 80.66 83.455C75.73 103.562 72.83 118.545 71.96 128.405C66.2567 130.048 59.925 130.87 52.965 130.87C51.3217 130.87 50.1133 130.725 49.34 130.435C49.8233 124.345 52.53 111.682 57.46 92.445C62.4867 73.2083 65 60.69 65 54.89ZM95.305 125.07C97.915 125.07 100.235 122.702 102.265 117.965C104.295 113.132 105.31 107.718 105.31 101.725L105.165 99.26C101.588 100.613 98.1567 103.078 94.87 106.655C91.68 110.232 90.085 114.05 90.085 118.11C90.085 120.527 90.6167 122.315 91.68 123.475C92.84 124.538 94.0483 125.07 95.305 125.07ZM140.631 119.125C140.631 114.968 141.888 107.912 144.401 97.955C146.914 87.9017 148.171 81.7633 148.171 79.54C148.171 77.22 146.431 74.175 142.951 70.405L143.096 68.52C149.669 67.1667 158.321 66.49 169.051 66.49C169.534 67.7467 169.776 70.0183 169.776 73.305C169.776 76.5917 168.423 83.6 165.716 94.33C163.009 105.06 161.656 111.73 161.656 114.34C161.656 116.95 162.623 118.255 164.556 118.255C167.359 118.255 170.598 117.24 174.271 115.21C174.658 112.89 175.624 108.443 177.171 101.87C180.651 86.4033 182.391 75.335 182.391 68.665C185.774 67.3117 191.864 66.635 200.661 66.635H203.416C203.416 71.1783 202.063 80.0717 199.356 93.315C196.649 106.462 195.296 114.195 195.296 116.515C195.296 118.738 195.779 119.85 196.746 119.85C197.326 119.85 200.081 118.69 205.011 116.37L207.766 121.01C199.163 128.163 191.623 131.74 185.146 131.74C182.053 131.74 179.394 130.87 177.171 129.13C175.044 127.39 173.836 125.118 173.546 122.315C165.716 128.695 158.611 131.885 152.231 131.885C148.848 131.885 146.044 130.773 143.821 128.55C141.694 126.327 140.631 123.185 140.631 119.125ZM215.744 130.435H212.989C212.989 125.892 214.343 117.192 217.049 104.335C219.853 91.4783 221.254 84.18 221.254 82.44C221.254 79.25 219.901 75.8667 217.194 72.29L215.889 70.55L216.034 68.665C221.254 67.215 229.616 66.49 241.119 66.49C242.376 68.1333 243.053 71.13 243.149 75.48C251.559 69.0033 258.664 65.765 264.464 65.765C267.944 65.765 270.699 66.9733 272.729 69.39C274.856 71.8067 275.919 74.8517 275.919 78.525C275.919 82.1017 274.808 88.3367 272.584 97.23C270.361 106.123 269.249 112.117 269.249 115.21C269.249 118.207 269.636 119.705 270.409 119.705C270.989 119.705 273.019 118.787 276.499 116.95L278.239 116.08L280.849 121.155C279.979 121.928 278.819 122.895 277.369 124.055C275.919 125.215 273.213 126.81 269.249 128.84C265.383 130.773 261.903 131.74 258.809 131.74C251.753 131.74 248.224 127.728 248.224 119.705C248.224 116.322 249.288 110.087 251.414 101C253.638 91.9133 254.749 86.065 254.749 83.455C254.749 80.845 253.928 79.54 252.284 79.54C249.481 79.54 246.049 80.7483 241.989 83.165C241.699 84.8083 240.733 89.1583 239.089 96.215C235.706 111.392 234.014 122.122 234.014 128.405C230.631 129.758 224.541 130.435 215.744 130.435Z" fill="black"/>
</g>
<defs>
<clipPath id="clip0_14_1">
<rect width="320" height="170" fill="white"/>
</clipPath>
</defs>
</svg>
